<svg id="eixf2vy9cnvd1" xmlns="http://www.w3.org/2000/svg" xmlns:xlink="http://www.w3.org/1999/xlink" viewBox="0 0 1000 1200" shape-rendering="geometricPrecision" text-rendering="geometricPrecision"><style><![CDATA[#eixf2vy9cnvd5_ts {animation: eixf2vy9cnvd5_ts__ts 5000ms linear 1 normal forwards}@keyframes eixf2vy9cnvd5_ts__ts { 0% {transform: translate(489.457413px,114.720284px) scale(1,1)} 38% {transform: translate(489.457413px,114.720284px) scale(1,1);animation-timing-function: cubic-bezier(0.550000,0.085000,0.680000,0.530000)} 48% {transform: translate(489.457413px,114.720284px) scale(1.500000,0.800000);animation-timing-function: cubic-bezier(0.550000,0.085000,0.680000,0.530000)} 50% {transform: translate(489.457413px,114.720284px) scale(1,1)} 100% {transform: translate(489.457413px,114.720284px) scale(1,1)} }#eixf2vy9cnvd8_ts {animation: eixf2vy9cnvd8_ts__ts 5000ms linear 1 normal forwards}@keyframes eixf2vy9cnvd8_ts__ts { 0% {transform: translate(719.861780px,472.341938px) skewX(1deg) skewY(1deg) scale(0,0)} 60% {transform: translate(719.861780px,472.341938px) skewX(1deg) skewY(1deg) scale(0,0)} 80% {transform: translate(719.861780px,472.341938px) skewX(1deg) skewY(1deg) scale(1,1)} 100% {transform: translate(719.861780px,472.341938px) skewX(1deg) skewY(1deg) scale(1,1)} }#eixf2vy9cnvd8 {animation: eixf2vy9cnvd8_c_o 5000ms linear 1 normal forwards}@keyframes eixf2vy9cnvd8_c_o { 0% {opacity: 0} 60% {opacity: 0;animation-timing-function: cubic-bezier(0.550000,0.055000,0.675000,0.190000)} 80% {opacity: 1} 100% {opacity: 1} }#eixf2vy9cnvd9_ts {animation: eixf2vy9cnvd9_ts__ts 5000ms linear 1 normal forwards}@keyframes eixf2vy9cnvd9_ts__ts { 0% {transform: translate(514.383667px,977.645813px) scale(0.200000,1)} 8% {transform: translate(514.383667px,977.645813px) scale(0.200000,1)} 10% {transform: translate(514.383667px,977.645813px) scale(1,1)} 100% {transform: translate(514.383667px,977.645813px) scale(1,1)} }#eixf2vy9cnvd10_ts {animation: eixf2vy9cnvd10_ts__ts 5000ms linear 1 normal forwards}@keyframes eixf2vy9cnvd10_ts__ts { 0% {transform: translate(510.588470px,811.505920px) scale(0.200000,1)} 14% {transform: translate(510.588470px,811.505920px) scale(0.200000,1)} 16% {transform: translate(510.588470px,811.505920px) scale(1,1)} 100% {transform: translate(510.588470px,811.505920px) scale(1,1)} }#eixf2vy9cnvd11_ts {animation: eixf2vy9cnvd11_ts__ts 5000ms linear 1 normal forwards}@keyframes eixf2vy9cnvd11_ts__ts { 0% {transform: translate(510.789749px,641.893982px) scale(0.200000,1)} 20% {transform: translate(510.789749px,641.893982px) scale(0.200000,1)} 22% {transform: translate(510.789749px,641.893982px) scale(1,1)} 100% {transform: translate(510.789749px,641.893982px) scale(1,1)} }#eixf2vy9cnvd12_ts {animation: eixf2vy9cnvd12_ts__ts 5000ms linear 1 normal forwards}@keyframes eixf2vy9cnvd12_ts__ts { 0% {transform: translate(510.594131px,472.341949px) scale(0.200000,1)} 26% {transform: translate(510.594131px,472.341949px) scale(0.200000,1)} 28% {transform: translate(510.594131px,472.341949px) scale(1,1)} 100% {transform: translate(510.594131px,472.341949px) scale(1,1)} }]]></style><defs><linearGradient id="eixf2vy9cnvd3-fill" x1="836.677000" y1="544.975000" x2="89.528000" y2="533.010000" spreadMethod="pad" gradientUnits="userSpaceOnUse"><stop id="eixf2vy9cnvd3-fill-0" offset="0%" stop-color="rgb(255,38,0)"/><stop id="eixf2vy9cnvd3-fill-1" offset="100%" stop-color="rgb(148,17,0)"/></linearGradient><linearGradient id="eixf2vy9cnvd4-fill" x1="923.302000" y1="541.112000" x2="167.642000" y2="539.271000" spreadMethod="pad" gradientUnits="userSpaceOnUse"><stop id="eixf2vy9cnvd4-fill-0" offset="0%" stop-color="rgb(255,38,0)"/><stop id="eixf2vy9cnvd4-fill-1" offset="100%" stop-color="rgb(148,17,0)"/></linearGradient><linearGradient id="eixf2vy9cnvd6-fill" x1="614.098000" y1="109.881000" x2="379.107000" y2="107.807000" spreadMethod="pad" gradientUnits="userSpaceOnUse"><stop id="eixf2vy9cnvd6-fill-0" offset="0%" stop-color="rgb(255,38,0)"/><stop id="eixf2vy9cnvd6-fill-1" offset="100%" stop-color="rgb(148,17,0)"/></linearGradient><linearGradient id="eixf2vy9cnvd7-fill" x1="518.369000" y1="122.626000" x2="468.893000" y2="118.172000" spreadMethod="pad" gradientUnits="userSpaceOnUse"><stop id="eixf2vy9cnvd7-fill-0" offset="0.500000%" stop-color="rgb(255,38,0)"/><stop id="eixf2vy9cnvd7-fill-1" offset="100%" stop-color="rgb(148,17,0)"/></linearGradient><linearGradient id="eixf2vy9cnvd9-fill" x1="500.119000" y1="991.954000" x2="529.050000" y2="963.298000" spreadMethod="pad" gradientUnits="userSpaceOnUse"><stop id="eixf2vy9cnvd9-fill-0" offset="0%" stop-color="rgb(102,12,0)"/><stop id="eixf2vy9cnvd9-fill-1" offset="100%" stop-color="rgb(171,21,0)"/></linearGradient><linearGradient id="eixf2vy9cnvd10-fill" x1="496.372000" y1="825.715000" x2="525.206000" y2="797.258000" spreadMethod="pad" gradientUnits="userSpaceOnUse"><stop id="eixf2vy9cnvd10-fill-0" offset="0%" stop-color="rgb(102,12,0)"/><stop id="eixf2vy9cnvd10-fill-1" offset="100%" stop-color="rgb(171,21,0)"/></linearGradient><linearGradient id="eixf2vy9cnvd11-fill" x1="496.632000" y1="656.029000" x2="525.347000" y2="627.721000" spreadMethod="pad" gradientUnits="userSpaceOnUse"><stop id="eixf2vy9cnvd11-fill-0" offset="0%" stop-color="rgb(102,12,0)"/><stop id="eixf2vy9cnvd11-fill-1" offset="100%" stop-color="rgb(171,21,0)"/></linearGradient><linearGradient id="eixf2vy9cnvd12-fill" x1="496.397000" y1="486.558000" x2="525.191000" y2="458.086000" spreadMethod="pad" gradientUnits="userSpaceOnUse"><stop id="eixf2vy9cnvd12-fill-0" offset="0%" stop-color="rgb(102,12,0)"/><stop id="eixf2vy9cnvd12-fill-1" offset="100%" stop-color="rgb(171,21,0)"/></linearGradient></defs><g id="eixf2vy9cnvd2"><path id="eixf2vy9cnvd3" d="M493.534000,413.394000C459.401000,472.920000,460.165000,468.712000,463.448000,537.251000C467.119000,613.885000,468.122000,899.810000,464.796000,921.786000C463.397000,931.031000,464.094000,940.769000,466.477000,945.284000C468.716000,949.524000,471.551000,961.863000,472.778000,972.703000C474.005000,983.543000,477.210000,996.114000,479.899000,1000.638000C482.589000,1005.162000,487.666000,1016.267000,491.180000,1025.315000C494.695000,1034.364000,500.736000,1046.985000,504.603000,1053.362000C512.799000,1066.877000,512.402000,1067.946000,488.829000,1095.922000C459.294000,1130.974000,418.772000,1169.291000,411.498000,1169.046000C407.885000,1168.924000,386.719000,1159.099000,364.464000,1147.213000C342.208000,1135.327000,301.047000,1115.504000,272.994000,1103.163000C194.176000,1068.488000,157.023000,1037.054000,150.195000,999.267000C145.371000,972.568000,128.769000,884.003000,123.725000,858.057000C116.363000,820.193000,111.574000,792.008000,102.965000,735.871000C95.940000,690.065000,86.220000,649.628000,74.995000,619.509000C72.185000,611.969000,65.385000,590.993000,59.884000,572.897000C54.384000,554.800000,48.420000,536.580000,46.631000,532.408000C43.694000,525.556000,44.776000,524.146000,57.825000,517.833000C113.466000,490.911000,122.912000,437.350000,95.657000,303.323000C67.189000,163.336000,66.308000,176.520000,104.910000,164.857000C117.286000,161.118000,144.288000,152.920000,164.914000,146.640000C185.540000,140.359000,212.542000,132.665000,224.917000,129.542000C237.293000,126.418000,249.106000,122.956000,251.169000,121.848000C253.232000,120.739000,263.403000,117.810000,273.772000,115.339000C284.142000,112.868000,298.819000,107.769000,306.388000,104.009000C323.229000,95.642000,324.277000,95.603000,324.380000,103.341000C324.594000,119.602000,433.301000,324.386000,472.355000,382.097000Z" fill="url(#eixf2vy9cnvd3-fill)" stroke="rgb(0,0,0)" stroke-width="10.588235" stroke-linejoin="round"/><path id="eixf2vy9cnvd4" d="M581.286000,1138.357000C566.845000,1125.186000,545.001000,1103.325000,532.745000,1089.777000C520.489000,1076.229000,509.508000,1064.528000,508.343000,1063.776000C502.531000,1060.022000,462.281000,977.192000,459.552000,963.369000C457.823000,954.617000,453.492000,939.450000,449.926000,929.666000C442.608000,909.583000,444.035000,877.629000,453.539000,848.755000C459.375000,831.026000,459.853000,616.692000,454.276000,518.673000C451.131000,463.395000,452.180000,459.587000,483.851000,411.338000C497.447000,390.625000,508.571000,372.996000,508.571000,372.162000C508.571000,371.328000,512.739000,363.717000,517.834000,355.250000C562.171000,281.560000,634.493000,130.401000,627.748000,125.518000C626.701000,124.760000,627.308000,122.795000,629.097000,121.151000C630.886000,119.507000,634.444000,111.696000,637.003000,103.793000C642.279000,87.501000,644.251000,86.858000,661.004000,95.970000C667.624000,99.571000,681.547000,104.964000,691.944000,107.956000C760.547000,127.698000,823.219000,145.065000,857.518000,153.840000C875.392000,158.412000,888.549000,163.498000,890.967000,166.770000C896.536000,174.302000,893.053000,255.726000,884.909000,308.380000C870.044000,404.491000,888.388000,471.056000,936.949000,497.224000C947.564000,502.943000,954.717000,508.955000,954.717000,512.156000C954.717000,519.101000,934.794000,594.613000,920.022000,643.655000C907.197000,686.232000,900.391000,711.659000,892.549000,746.290000C885.777000,776.194000,883.653000,791.066000,875.350000,866.716000C865.412000,957.249000,859.619000,978.640000,834.577000,1017.248000C816.890000,1044.516000,802.425000,1056.914000,770.433000,1072.223000C716.599000,1097.985000,646.581000,1138.331000,624.247000,1156.459000C613.072000,1165.531000,609.369000,1163.970000,581.286000,1138.357000Z" fill="url(#eixf2vy9cnvd4-fill)" stroke="rgb(0,0,0)" stroke-width="10.588235" stroke-linejoin="round"/></g><g id="eixf2vy9cnvd5_ts" transform="translate(489.457413,114.720284) scale(1,1)"><g id="eixf2vy9cnvd5" transform="translate(-489.457413,-114.720284)"><path id="eixf2vy9cnvd6" d="M362.394000,32.703000C404.647000,38.493000,435.910000,52.398000,452.105000,67.801000C472.357000,87.061000,506.500000,89.799000,515.553000,72.889000C524.386000,56.387000,610.192000,21.341000,619.348000,30.495000C634.938000,46.081000,641.261000,134.159000,629.313000,169.312000C618.131000,202.210000,617.620000,202.806000,604.113000,198.651000C597.887000,196.735000,589.396000,193.674000,585.245000,191.847000C581.094000,190.021000,566.370000,183.522000,552.525000,177.405000C538.680000,171.288000,523.515000,161.871000,518.826000,156.479000C507.012000,142.896000,478.829000,142.565000,461.409000,155.806000C454.802000,160.828000,438.165000,169.153000,424.438000,174.307000C410.710000,179.461000,394.578000,186.149000,388.589000,189.169000C362.315000,202.418000,358.201000,201.386000,350.742000,179.682000C340.059000,148.593000,341.152000,91.593000,353.065000,58.566000Z" fill="url(#eixf2vy9cnvd6-fill)" stroke="rgb(0,0,0)" stroke-width="9.411764" stroke-linejoin="round"/><path id="eixf2vy9cnvd7" d="M473.925000,142.903000L473.925000,82.542000L511.660000,86.315000L511.660000,146.676000Z" fill="url(#eixf2vy9cnvd7-fill)" stroke="rgb(0,0,0)" stroke-width="4.705882" stroke-linejoin="round"/></g></g><g id="eixf2vy9cnvd8_ts" transform="translate(719.861780,472.341938) skewX(1) skewY(1) scale(0,0)"><path id="eixf2vy9cnvd8" d="M659.980000,419.979000C710.841000,419.503000,711.760000,419.786000,712.443000,420.468000C713.026000,421.052000,713.121000,422.101000,713.304000,430.047000L713.467000,437.095000L713.162000,437.862000L712.217000,438.345000L704.954000,438.345000C696.649000,438.345000,697.117000,438.184000,698.551000,440.544000C703.677000,448.979000,705.304000,460.237000,703.006000,471.375000C700.659000,482.755000,692.478000,492.456000,682.099000,496.166000C676.814000,498.055000,666.543000,499.453000,662.276000,498.863000C661.878000,498.808000,660.572000,498.644000,659.376000,498.498000C638.180000,495.917000,625.895000,480.966000,625.895000,457.752000C625.895000,437.929000,635.135000,425.573000,653.487000,420.853000ZM745.071000,498.373000C744.738000,498.312000,743.324000,498.101000,741.928000,497.906000C732.714000,496.617000,726.754000,493.786000,720.345000,487.655000C712.088000,479.756000,709.198000,473.147000,709.194000,462.148000C709.188000,445.869000,715.453000,435.870000,730.536000,428.090000C735.236000,425.666000,735.346000,425.347000,732.342000,422.864000C724.444000,416.333000,720.656000,409.718000,720.656000,402.459000C720.656000,382.331000,749.293000,373.378000,776.663000,384.948000C781.476000,386.982000,781.210000,386.284000,781.210000,396.901000C781.210000,408.666000,781.406000,408.370000,775.875000,404.985000C760.907000,395.827000,744.746000,395.772000,745.114000,404.881000C745.278000,408.966000,748.396000,411.768000,760.179000,418.424000C785.206000,432.558000,793.101000,443.161000,792.376000,461.665000C791.597000,481.543000,779.073000,495.141000,759.091000,497.801000C755.546000,498.273000,746.520000,498.642000,745.071000,498.373000ZM669.142000,478.695000C682.355000,475.529000,687.801000,459.866000,679.554000,448.748000C672.368000,439.058000,656.778000,439.058000,649.591000,448.748000C638.855000,463.223000,651.686000,482.878000,669.142000,478.695000ZM756.479000,478.292000C771.516000,473.055000,773.913000,452.608000,760.468000,444.280000C753.033000,439.675000,743.085000,440.788000,736.960000,446.911000C728.685000,455.184000,730.006000,469.527000,739.633000,475.930000C744.633000,479.256000,751.107000,480.164000,756.479000,478.292000Z" transform="translate(-709.158051,-439.411530)" opacity="0" fill="rgb(0,129,160)" stroke="rgb(48,48,48)" stroke-width="3.529412" stroke-linejoin="round"/></g><g id="eixf2vy9cnvd9_ts" transform="translate(514.383667,977.645813) scale(0.200000,1)"><path id="eixf2vy9cnvd9" d="M514.203000,997.999000C511.422000,997.999000,507.745000,997.130000,505.204000,995.872000C502.841000,994.702000,499.865000,992.340000,498.592000,990.623000C497.318000,988.905000,495.764000,985.970000,495.138000,984.101000C494.512000,982.231000,494.010000,979.081000,494.022000,977.101000C494.034000,975.120000,494.863000,971.696000,495.865000,969.491000C496.867000,967.287000,499.326000,964.043000,501.330000,962.284000C503.334000,960.524000,506.890000,958.568000,509.231000,957.938000C512.443000,957.073000,514.764000,957.077000,518.681000,957.953000C522.196000,958.740000,525.201000,960.307000,527.989000,962.807000C530.518000,965.076000,532.699000,968.235000,533.645000,971C534.604000,973.805000,534.968000,977.102000,534.611000,979.753000C534.295000,982.092000,533.139000,985.767000,532.041000,987.919000C530.943000,990.071000,528.798000,992.679000,527.273000,993.715000C525.748000,994.750000,523.241000,996.138000,521.703000,996.799000C520.165000,997.459000,516.790000,998,514.203000,997.999000Z" transform="translate(-514.383667,-977.645813)" fill="url(#eixf2vy9cnvd9-fill)" stroke="none" stroke-width="1.176471"/></g><g id="eixf2vy9cnvd10_ts" transform="translate(510.588470,811.505920) scale(0.200000,1)"><path id="eixf2vy9cnvd10" d="M511.532000,831.689000C507.949000,831.841000,504.253000,831.375000,502.430000,830.543000C500.742000,829.772000,497.729000,827.335000,495.734000,825.127000C493.740000,822.920000,491.586000,819.178000,490.949000,816.812000C490.063000,813.521000,490.074000,811.246000,490.996000,807.129000C491.921000,802.995000,493.191000,800.757000,496.474000,797.474000C499.757000,794.191000,501.995000,792.921000,506.129000,791.996000C510.246000,791.074000,512.521000,791.063000,515.812000,791.949000C518.178000,792.586000,521.862000,794.687000,523.998000,796.617000C526.135000,798.548000,528.642000,802.115000,529.571000,804.546000C530.688000,807.471000,531.096000,810.652000,530.778000,813.957000C530.485000,817.004000,529.292000,820.472000,527.716000,822.852000C526.296000,824.998000,523.431000,827.807000,521.349000,829.093000C518.685000,830.740000,515.776000,831.509000,511.532000,831.689000Z" transform="translate(-510.588470,-811.505920)" fill="url(#eixf2vy9cnvd10-fill)" stroke="none" stroke-width="1.176471"/></g><g id="eixf2vy9cnvd11_ts" transform="translate(510.789749,641.893982) scale(0.200000,1)"><path id="eixf2vy9cnvd11" d="M510.236000,662C505.483000,662,503.523000,661.449000,499.742000,659.052000C496.817000,657.197000,494.262000,654.508000,492.851000,651.802000C491.340000,648.902000,490.600000,645.707000,490.580000,642C490.559000,637.977000,491.216000,635.302000,493.026000,632.041000C494.574000,629.250000,497.239000,626.507000,500.149000,624.710000C503.713000,622.507000,506.053000,621.826000,510.184000,621.789000C513.713000,621.758000,516.939000,622.442000,519.536000,623.773000C521.716000,624.891000,524.491000,626.868000,525.702000,628.166000C526.914000,629.465000,528.601000,632.194000,529.452000,634.232000C530.304000,636.269000,531,639.765000,531,642C531,644.235000,530.304000,647.731000,529.452000,649.768000C528.601000,651.806000,526.914000,654.535000,525.702000,655.834000C524.491000,657.132000,521.830000,659.051000,519.790000,660.097000C517.391000,661.327000,514.013000,662,510.236000,662Z" transform="translate(-510.789749,-641.893982)" fill="url(#eixf2vy9cnvd11-fill)" stroke="none" stroke-width="1.176471"/></g><g id="eixf2vy9cnvd12_ts" transform="translate(510.594131,472.341949) scale(0.200000,1)"><path id="eixf2vy9cnvd12" d="M512.348000,492.430000C510.232000,492.697000,507.372000,492.553000,505.994000,492.109000C504.615000,491.666000,502.051000,490.560000,500.295000,489.653000C498.540000,488.745000,495.997000,486.539000,494.644000,484.751000C493.291000,482.963000,491.656000,479.516000,491.011000,477.091000C490.365000,474.666000,490.137000,471.066000,490.504000,469.091000C490.871000,467.116000,492.112000,463.819000,493.262000,461.764000C494.412000,459.709000,497.121000,456.802000,499.282000,455.304000C502.265000,453.237000,504.692000,452.492000,509.356000,452.213000C514.387000,451.911000,516.315000,452.280000,520,454.249000C522.475000,455.571000,525.787000,458.481000,527.360000,460.714000C529.117000,463.208000,530.424000,466.580000,530.748000,469.456000C531.038000,472.030000,530.743000,475.914000,530.093000,478.085000C529.442000,480.257000,527.475000,483.668000,525.721000,485.666000C523.966000,487.663000,521.106000,489.893000,519.363000,490.622000C517.621000,491.349000,514.464000,492.163000,512.348000,492.430000Z" transform="translate(-510.594131,-472.341949)" fill="url(#eixf2vy9cnvd12-fill)" stroke="none" stroke-width="1.176471"/></g></svg>